<svg xmlns="http://www.w3.org/2000/svg" viewBox="0 0 512 512"><rect x="0" y="0" width="512" height="512" rx="120" ry="120" fill="#0F0F0F"/><g fill="#FFFFFF" transform="translate(102.4,323.95051805337516) scale(0.09645211930926216)"><path transform="translate(0,0) scale(1,-1)" d="M1105 0 778 535H432V0H137V1409H841Q1093 1409 1230.0 1300.5Q1367 1192 1367 989Q1367 841 1283.0 733.5Q1199 626 1056 592L1437 0ZM1070 977Q1070 1180 810 1180H432V764H818Q942 764 1006.0 820.0Q1070 876 1070 977Z"/><path transform="translate(1479,0) scale(1,-1)" d="M1307 0V854Q1307 883 1307.5 912.0Q1308 941 1317 1161Q1246 892 1212 786L958 0H748L494 786L387 1161Q399 929 399 854V0H137V1409H532L784 621L806 545L854 356L917 582L1176 1409H1569V0Z"/></g></svg>